<svg width="39" height="10" viewBox="0 0 39 10" fill="none" xmlns="http://www.w3.org/2000/svg">
<path d="M4.606 1.46V10H3.206V1.46H0.42V0.199999H7.392V1.46H4.606ZM14.6246 10L13.1126 4.652H13.0846L11.5866 10H9.97664L8.22664 3H9.48664L10.8166 8.474H10.8446L12.3846 3H13.8266L15.3666 8.474H15.3946L16.7246 3H17.9846L16.2346 10H14.6246ZM25.0523 8.782V10H21.1463L19.5223 9.062V3.868L21.1463 2.93H23.4283L25.0523 3.868V6.976H20.8803V8.782H25.0523ZM20.8803 4.148V5.758H23.6943V4.148H20.8803ZM32.818 8.782V10H28.912L27.288 9.062V3.868L28.912 2.93H31.194L32.818 3.868V6.976H28.646V8.782H32.818ZM28.646 4.148V5.758H31.46V4.148H28.646ZM34.4936 4.218V3H35.7816V1.824L37.1396 1.04V3H38.8196V4.218H37.1396V8.782H38.8196V10H37.4056L35.7816 9.062V4.218H34.4936Z" fill="white"/>
</svg>
